# xmcd CD database file
#
# Track frame offsets:
#	150
#	41552
#	63495
#	87835
#	113892
#	138125
#	167015
#	198435
#	233365
#	250982
#	261810
#	269067
#
# Disc length: 4274 seconds
#
# Revision: 0
# Processed by: cddbd v1.5.1PL0 Copyright (c) Steve Scherf et al.
# Submitted via: CDex 1.51
#
DISCID=a310b00c
DTITLE=TEN - Never Say Goodbye ’97/'98 [CD1]
DYEAR=1998
DGENRE=Hard Rock
TTITLE0=The Robe
TTITLE1=Bright On The Blade
TTITLE2=Wildest Dreams
TTITLE3=The Torch
TTITLE4=Yesterday Lies In The Flames
TTITLE5=The Rainbow
TTITLE6=Goodnight Saigon
TTITLE7=Arcadia
TTITLE8=You're In My Heart (Acoustic)
TTITLE9=Close Your Eyes And Dream (Acoustic)
TTITLE10=Turn Around (Acoustic)
TTITLE11=The Loneliest Place In The World
EXTD=YEAR: 1998
EXTT0=
EXTT1=
EXTT2=
EXTT3=
EXTT4=
EXTT5=
EXTT6=
EXTT7=
EXTT8=
EXTT9=
EXTT10=
EXTT11=
PLAYORDER=
